<svg id="SvgjsSvg1001" width="288" height="288" xmlns="http://www.w3.org/2000/svg" version="1.1" xmlns:xlink="http://www.w3.org/1999/xlink" xmlns:svgjs="http://svgjs.com/svgjs"><defs id="SvgjsDefs1002"></defs><g id="SvgjsG1008"><svg xmlns="http://www.w3.org/2000/svg" fill="none" viewBox="0 0 117 117" width="288" height="288"><path fill="#3668a1" d="M92.7433 18.4067C92.1948 17.8582 91.4508 17.55 90.675 17.55 89.8993 17.55 89.1553 17.8582 88.6068 18.4067 88.0582 18.9553 87.75 19.6993 87.75 20.475 87.75 21.2508 88.0582 21.9948 88.6068 22.5433 89.1553 23.0919 89.8993 23.4 90.675 23.4 91.4508 23.4 92.1948 23.0919 92.7433 22.5433 93.2919 21.9948 93.6 21.2508 93.6 20.475 93.6 19.6993 93.2919 18.9553 92.7433 18.4067zM108.185 32.1744C107.088 31.0773 105.6 30.4609 104.048 30.4609 102.497 30.4609 101.009 31.0773 99.9115 32.1744 98.8144 33.2715 98.1981 34.7594 98.1981 36.3109 98.1981 37.8625 98.8144 39.3504 99.9115 40.4475 101.009 41.5446 102.497 42.1609 104.048 42.1609 105.6 42.1609 107.088 41.5446 108.185 40.4475 109.282 39.3504 109.898 37.8625 109.898 36.3109 109.898 34.7594 109.282 33.2715 108.185 32.1744zM114.43 57.0863C112.784 55.4407 110.552 54.5162 108.225 54.5162 105.898 54.5162 103.666 55.4407 102.02 57.0863 100.375 58.7319 99.45 60.9639 99.45 63.2912 99.45 65.6184 100.375 67.8504 102.02 69.496 103.666 71.1417 105.898 72.0662 108.225 72.0662 110.552 72.0662 112.784 71.1417 114.43 69.496 116.076 67.8504 117 65.6184 117 63.2912 117 60.9639 116.076 58.7319 114.43 57.0863zM103.739 82.4019C101.545 80.2077 98.5692 78.975 95.4662 78.975 92.3632 78.975 89.3872 80.2077 87.193 82.4019 84.9988 84.596 83.7662 87.572 83.7662 90.675 83.7662 93.778 84.9988 96.754 87.193 98.9481 89.3872 101.142 92.3632 102.375 95.4662 102.375 98.5692 102.375 101.545 101.142 103.739 98.9481 105.934 96.754 107.166 93.778 107.166 90.675 107.166 87.572 105.934 84.596 103.739 82.4019zM72.6231 97.0268C70.4289 94.8327 67.453 93.6 64.35 93.6 61.2469 93.6 58.271 94.8327 56.0768 97.0268 53.8826 99.221 52.65 102.197 52.65 105.3 52.65 108.403 53.8826 111.379 56.0768 113.573 58.271 115.767 61.2469 117 64.35 117 67.453 117 70.4289 115.767 72.6231 113.573 74.8173 111.379 76.05 108.403 76.05 105.3 76.05 102.197 74.8173 99.221 72.6231 97.0268zM38.0763 80.3336C35.3336 77.5909 31.6137 76.05 27.7349 76.05 23.8561 76.05 20.1362 77.5909 17.3935 80.3336 14.6507 83.0763 13.1099 86.7963 13.1099 90.675 13.1099 94.5538 14.6507 98.2738 17.3935 101.016 20.1362 103.759 23.8561 105.3 27.7349 105.3 31.6137 105.3 35.3336 103.759 38.0763 101.016 40.8191 98.2738 42.3599 94.5538 42.3599 90.675 42.3599 86.7963 40.8191 83.0763 38.0763 80.3336zM24.9664 39.3836C22.2237 36.6408 18.5038 35.1 14.625 35.1 10.7462 35.1 7.02629 36.6408 4.28357 39.3836 1.54084 42.1263 0 45.8462 0 49.725 0 53.6038 1.54084 57.3237 4.28357 60.0664 7.02629 62.8092 10.7462 64.35 14.625 64.35 18.5038 64.35 22.2237 62.8092 24.9664 60.0664 27.7092 57.3237 29.25 53.6038 29.25 49.725 29.25 45.8462 27.7092 42.1263 24.9664 39.3836zM59.2097 5.14028C55.9185 1.84901 51.4546 0 46.8 0 42.1455 0 37.6815 1.84901 34.3903 5.14028 31.099 8.43154 29.25 12.8955 29.25 17.55 29.25 22.2046 31.099 26.6685 34.3903 29.9597 37.6815 33.251 42.1455 35.1 46.8 35.1 51.4546 35.1 55.9185 33.251 59.2097 29.9597 62.501 26.6685 64.35 22.2046 64.35 17.55 64.35 12.8955 62.501 8.43154 59.2097 5.14028z" class="color1c595e svgShape"></path></svg></g></svg>